{
  "accessors": [
    {
      "bufferView": 2,
      "componentType": 5126,
      "count": 328,
      "max": [
        1.0,
        1.5851614475250244,
        1.0
      ],
      "min": [
        -1.0,
        -0.9241478443145752,
        -1.0
      ],
      "type": "VEC3"
    },
    {
      "bufferView": 2,
      "byteOffset": 3936,
      "componentType": 5126,
      "count": 328,
      "max": [
        1.0,
        1.0,
        1.0
      ],
      "min": [
        -1.0,
        -1.0,
        -1.0
      ],
      "type": "VEC3"
    },
    {
      "bufferView": 1,
      "componentType": 5126,
      "count": 328,
      "max": [
        1.0,
        1.0
      ],
      "min": [
        0.0,
        0.01000000536441803
      ],
      "type": "VEC2"
    },
    {
      "bufferView": 0,
      "componentType": 5125,
      "count": 1140,
      "type": "SCALAR"
    },
    {
      "bufferView": 2,
      "byteOffset": 7872,
      "componentType": 5126,
      "count": 5223,
      "max": [
        1.0503517389297485,
        9.276026725769043,
        1.0503517389297485
      ],
      "min": [
        -1.0503517389297485,
        -1.2153761386871338,
        -1.0503519773483276
      ],
      "type": "VEC3"
    },
    {
      "bufferView": 2,
      "byteOffset": 70548,
      "componentType": 5126,
      "count": 5223,
      "max": [
        0.9999991059303284,
        1.0,
        0.9999991059303284
      ],
      "min": [
        -0.9999991059303284,
        -1.0,
        -0.9999991059303284
      ],
      "type": "VEC3"
    },
    {
      "bufferView": 1,
      "byteOffset": 2624,
      "componentType": 5126,
      "count": 5223,
      "max": [
        1.0000001192092896,
        1.0000001192092896
      ],
      "min": [
        0.0,
        0.010000006295740604
      ],
      "type": "VEC2"
    },
    {
      "bufferView": 0,
      "byteOffset": 4560,
      "componentType": 5125,
      "count": 14208,
      "type": "SCALAR"
    },
    {
      "bufferView": 2,
      "byteOffset": 133224,
      "componentType": 5126,
      "count": 7923,
      "max": [
        0.9903675317764282,
        2.359623432159424,
        0.990367591381073
      ],
      "min": [
        -0.9903675317764282,
        -1.2126647233963013,
        -0.990367591381073
      ],
      "type": "VEC3"
    },
    {
      "bufferView": 2,
      "byteOffset": 228300,
      "componentType": 5126,
      "count": 7923,
      "max": [
        0.9999127388000488,
        0.9571877717971802,
        0.9999127984046936
      ],
      "min": [
        -0.9999127388000488,
        -1.0,
        -0.9999127984046936
      ],
      "type": "VEC3"
    },
    {
      "bufferView": 1,
      "byteOffset": 44408,
      "componentType": 5126,
      "count": 7923,
      "max": [
        1.0000001192092896,
        1.0000001192092896
      ],
      "min": [
        0.0,
        0.01000000536441803
      ],
      "type": "VEC2"
    },
    {
      "bufferView": 0,
      "byteOffset": 61392,
      "componentType": 5125,
      "count": 20928,
      "type": "SCALAR"
    },
    {
      "bufferView": 2,
      "byteOffset": 323376,
      "componentType": 5126,
      "count": 138,
      "max": [
        0.9924683570861816,
        0.6452401280403137,
        0.5513859987258911
      ],
      "min": [
        -0.9924683570861816,
        -0.6816550493240356,
        -0.9924684166908264
      ],
      "type": "VEC3"
    },
    {
      "bufferView": 2,
      "byteOffset": 325032,
      "componentType": 5126,
      "count": 138,
      "max": [
        0.9999982714653015,
        0.023896638303995132,
        0.5555694103240967
      ],
      "min": [
        -0.9999982714653015,
        -0.01321136113256216,
        -0.9999982714653015
      ],
      "type": "VEC3"
    },
    {
      "bufferView": 1,
      "byteOffset": 107792,
      "componentType": 5126,
      "count": 138,
      "max": [
        1.0000001192092896,
        1.0
      ],
      "min": [
        0.0,
        0.5
      ],
      "type": "VEC2"
    },
    {
      "bufferView": 0,
      "byteOffset": 145104,
      "componentType": 5125,
      "count": 528,
      "type": "SCALAR"
    },
    {
      "bufferView": 2,
      "byteOffset": 326688,
      "componentType": 5126,
      "count": 63,
      "max": [
        0.8252073526382446,
        0.6452401280403137,
        0.9924684166908264
      ],
      "min": [
        -0.8252072334289551,
        -0.6816550493240356,
        0.5487971305847168
      ],
      "type": "VEC3"
    },
    {
      "bufferView": 2,
      "byteOffset": 327444,
      "componentType": 5126,
      "count": 63,
      "max": [
        0.8314681649208069,
        0.023896638303995132,
        0.9999982714653015
      ],
      "min": [
        -0.8314679861068726,
        -0.01321142353117466,
        0.5554116368293762
      ],
      "type": "VEC3"
    },
    {
      "bufferView": 1,
      "byteOffset": 108896,
      "componentType": 5126,
      "count": 63,
      "max": [
        0.9971712827682495,
        0.9577082395553589
      ],
      "min": [
        0.002828806871548295,
        -0.049870945513248444
      ],
      "type": "VEC2"
    },
    {
      "bufferView": 0,
      "byteOffset": 147216,
      "componentType": 5125,
      "count": 240,
      "type": "SCALAR"
    }
  ],
  "asset": {
    "extras": {
      "author": "Elizabeth Cahya (https://sketchfab.com/ElizabethCahya)",
      "license": "CC-BY-4.0 (http://creativecommons.org/licenses/by/4.0/)",
      "source": "https://sketchfab.com/3d-models/soju-b82cb833c0264554a6025edb8b6dfa27",
      "title": "Soju"
    },
    "generator": "Sketchfab-15.26.0",
    "version": "2.0"
  },
  "bufferViews": [
    {
      "buffer": 0,
      "byteLength": 148176,
      "name": "floatBufferViews",
      "target": 34963
    },
    {
      "buffer": 0,
      "byteLength": 109400,
      "byteOffset": 148176,
      "byteStride": 8,
      "name": "floatBufferViews",
      "target": 34962
    },
    {
      "buffer": 0,
      "byteLength": 328200,
      "byteOffset": 257576,
      "byteStride": 12,
      "name": "floatBufferViews",
      "target": 34962
    }
  ],
  "buffers": [
    {
      "byteLength": 585776,
      "uri": "scene.bin"
    }
  ],
  "images": [
    {
      "uri": "textures/Material.006_baseColor.jpeg"
    }
  ],
  "materials": [
    {
      "doubleSided": true,
      "name": "Material.008"
    },
    {
      "doubleSided": true,
      "name": "Material.002"
    },
    {
      "doubleSided": true,
      "name": "Material.001"
    },
    {
      "doubleSided": true,
      "name": "Material.004",
      "pbrMetallicRoughness": {
        "baseColorFactor": [
          0.8,
          0.8,
          0.8,
          1.0
        ],
        "metallicFactor": 0.0,
        "roughnessFactor": 0.5
      }
    },
    {
      "doubleSided": true,
      "name": "Material.006",
      "pbrMetallicRoughness": {
        "baseColorTexture": {
          "index": 0
        },
        "metallicFactor": 0.340367,
        "roughnessFactor": 0.5
      }
    }
  ],
  "meshes": [
    {
      "name": "Object_0",
      "primitives": [
        {
          "attributes": {
            "NORMAL": 1,
            "POSITION": 0,
            "TEXCOORD_0": 2
          },
          "indices": 3,
          "material": 0,
          "mode": 4
        }
      ]
    },
    {
      "name": "Object_1",
      "primitives": [
        {
          "attributes": {
            "NORMAL": 5,
            "POSITION": 4,
            "TEXCOORD_0": 6
          },
          "indices": 7,
          "material": 1,
          "mode": 4
        }
      ]
    },
    {
      "name": "Object_2",
      "primitives": [
        {
          "attributes": {
            "NORMAL": 9,
            "POSITION": 8,
            "TEXCOORD_0": 10
          },
          "indices": 11,
          "material": 2,
          "mode": 4
        }
      ]
    },
    {
      "name": "Object_3",
      "primitives": [
        {
          "attributes": {
            "NORMAL": 13,
            "POSITION": 12,
            "TEXCOORD_0": 14
          },
          "indices": 15,
          "material": 3,
          "mode": 4
        }
      ]
    },
    {
      "name": "Object_4",
      "primitives": [
        {
          "attributes": {
            "NORMAL": 17,
            "POSITION": 16,
            "TEXCOORD_0": 18
          },
          "indices": 19,
          "material": 4,
          "mode": 4
        }
      ]
    }
  ],
  "nodes": [
    {
      "children": [
        1
      ],
      "matrix": [
        1.0,
        0.0,
        0.0,
        0.0,
        0.0,
        2.220446049250313e-16,
        -1.0,
        0.0,
        0.0,
        1.0,
        2.220446049250313e-16,
        0.0,
        0.0,
        0.0,
        0.0,
        1.0
      ],
      "name": "Sketchfab_model"
    },
    {
      "children": [
        2
      ],
      "name": "root"
    },
    {
      "children": [
        3,
        5,
        7
      ],
      "matrix": [
        1.0,
        0.0,
        0.0,
        0.0,
        0.0,
        2.220446049250313e-16,
        1.0,
        0.0,
        0.0,
        -1.0,
        2.220446049250313e-16,
        0.0,
        0.0,
        0.0,
        0.0,
        1.0
      ],
      "name": "GLTF_SceneRootNode"
    },
    {
      "children": [
        4
      ],
      "matrix": [
        0.4165201485157013,
        0.0,
        0.0,
        0.0,
        0.0,
        1.2975780963897705,
        0.0,
        0.0,
        0.0,
        0.0,
        0.4165201485157013,
        0.0,
        -0.06901615858078003,
        2.0515270233154297,
        0.0,
        1.0
      ],
      "name": "Cylinder.005_0"
    },
    {
      "mesh": 0,
      "name": "Object_4"
    },
    {
      "children": [
        6
      ],
      "matrix": [
        0.27999311685562134,
        0.0,
        0.0,
        0.0,
        0.0,
        0.034072455018758774,
        0.0,
        0.0,
        0.0,
        0.0,
        0.27999311685562134,
        0.0,
        -0.06901615858078003,
        4.614159107208252,
        0.0,
        1.0
      ],
      "name": "Cylinder.004_1"
    },
    {
      "mesh": 1,
      "name": "Object_6"
    },
    {
      "children": [
        8,
        9,
        10
      ],
      "matrix": [
        0.6352770924568176,
        0.0,
        0.0,
        0.0,
        0.0,
        1.0852675437927246,
        0.0,
        0.0,
        0.0,
        0.0,
        0.6352770924568176,
        0.0,
        -0.06901615858078003,
        2.020108222961426,
        0.0,
        1.0
      ],
      "name": "Cylinder.003_2"
    },
    {
      "mesh": 2,
      "name": "Object_8"
    },
    {
      "mesh": 3,
      "name": "Object_9"
    },
    {
      "mesh": 4,
      "name": "Object_10"
    }
  ],
  "samplers": [
    {
      "magFilter": 9729,
      "minFilter": 9987,
      "wrapS": 10497,
      "wrapT": 10497
    }
  ],
  "scene": 0,
  "scenes": [
    {
      "name": "Sketchfab_Scene",
      "nodes": [
        0
      ]
    }
  ],
  "textures": [
    {
      "sampler": 0,
      "source": 0
    }
  ]
}
