{
  "accessors": [
    {
      "bufferView": 2,
      "componentType": 5126,
      "count": 957,
      "max": [
        8.86075496673584,
        18.529909133911133,
        25.137435913085938
      ],
      "min": [
        -8.860754013061523,
        -18.529909133911133,
        -25.13745880126953
      ],
      "type": "VEC3"
    },
    {
      "bufferView": 2,
      "byteOffset": 11484,
      "componentType": 5126,
      "count": 957,
      "max": [
        1.0,
        1.0,
        1.0
      ],
      "min": [
        -1.0,
        -1.0,
        -1.0
      ],
      "type": "VEC3"
    },
    {
      "bufferView": 3,
      "componentType": 5126,
      "count": 957,
      "max": [
        1.0,
        1.0,
        0.9984786510467529,
        1.0
      ],
      "min": [
        -1.0,
        -0.9999932646751404,
        -0.9999924898147583,
        1.0
      ],
      "type": "VEC4"
    },
    {
      "bufferView": 1,
      "componentType": 5126,
      "count": 957,
      "max": [
        0.9931640625,
        0.9948043823242188
      ],
      "min": [
        0.00519561767578125,
        0.00537109375
      ],
      "type": "VEC2"
    },
    {
      "bufferView": 1,
      "byteOffset": 7656,
      "componentType": 5126,
      "count": 957,
      "max": [
        0.9931640625,
        0.9948043823242188
      ],
      "min": [
        0.00519561767578125,
        0.00537109375
      ],
      "type": "VEC2"
    },
    {
      "bufferView": 1,
      "byteOffset": 15312,
      "componentType": 5126,
      "count": 957,
      "max": [
        0.9931640625,
        0.9948043823242188
      ],
      "min": [
        0.00519561767578125,
        0.00537109375
      ],
      "type": "VEC2"
    },
    {
      "bufferView": 1,
      "byteOffset": 22968,
      "componentType": 5126,
      "count": 957,
      "max": [
        0.9931640625,
        0.9948043823242188
      ],
      "min": [
        0.00519561767578125,
        0.00537109375
      ],
      "type": "VEC2"
    },
    {
      "bufferView": 0,
      "componentType": 5125,
      "count": 3486,
      "type": "SCALAR"
    }
  ],
  "asset": {
    "extras": {
      "author": "MaX3Dd (https://sketchfab.com/MaX3Dd)",
      "license": "CC-BY-4.0 (http://creativecommons.org/licenses/by/4.0/)",
      "source": "https://sketchfab.com/3d-models/fuel-can-low-poly-1ba93895512e47be945484b2fbdbc0a3",
      "title": "Fuel Can Low-poly"
    },
    "generator": "Sketchfab-16.59.0",
    "version": "2.0"
  },
  "bufferViews": [
    {
      "buffer": 0,
      "byteLength": 13944,
      "name": "floatBufferViews",
      "target": 34963
    },
    {
      "buffer": 0,
      "byteLength": 30624,
      "byteOffset": 13944,
      "byteStride": 8,
      "name": "floatBufferViews",
      "target": 34962
    },
    {
      "buffer": 0,
      "byteLength": 22968,
      "byteOffset": 44568,
      "byteStride": 12,
      "name": "floatBufferViews",
      "target": 34962
    },
    {
      "buffer": 0,
      "byteLength": 15312,
      "byteOffset": 67536,
      "byteStride": 16,
      "name": "floatBufferViews",
      "target": 34962
    }
  ],
  "buffers": [
    {
      "byteLength": 82848,
      "uri": "scene.bin"
    }
  ],
  "images": [
    {
      "uri": "textures/fuel_can_baseColor.png"
    },
    {
      "uri": "textures/fuel_can_metallicRoughness.png"
    },
    {
      "uri": "textures/fuel_can_normal.png"
    }
  ],
  "materials": [
    {
      "doubleSided": true,
      "name": "fuel_can",
      "normalTexture": {
        "index": 2
      },
      "occlusionTexture": {
        "index": 1
      },
      "pbrMetallicRoughness": {
        "baseColorTexture": {
          "index": 0
        },
        "metallicRoughnessTexture": {
          "index": 1
        }
      }
    }
  ],
  "meshes": [
    {
      "name": "fuel_can_fuel_can_0",
      "primitives": [
        {
          "attributes": {
            "NORMAL": 1,
            "POSITION": 0,
            "TANGENT": 2,
            "TEXCOORD_0": 3,
            "TEXCOORD_1": 4,
            "TEXCOORD_2": 5,
            "TEXCOORD_3": 6
          },
          "indices": 7,
          "material": 0,
          "mode": 4
        }
      ]
    }
  ],
  "nodes": [
    {
      "children": [
        1
      ],
      "matrix": [
        1.0,
        0.0,
        0.0,
        0.0,
        0.0,
        2.220446049250313e-16,
        -1.0,
        0.0,
        0.0,
        1.0,
        2.220446049250313e-16,
        0.0,
        0.0,
        0.0,
        0.0,
        1.0
      ],
      "name": "Sketchfab_model"
    },
    {
      "children": [
        2
      ],
      "matrix": [
        0.009999999776482582,
        0.0,
        0.0,
        0.0,
        0.0,
        0.0,
        0.009999999776482582,
        0.0,
        0.0,
        -0.009999999776482582,
        0.0,
        0.0,
        0.0,
        0.0,
        0.0,
        1.0
      ],
      "name": "fuel_can.fbx"
    },
    {
      "children": [
        3
      ],
      "name": "RootNode"
    },
    {
      "children": [
        4
      ],
      "matrix": [
        1.0,
        0.0,
        0.0,
        0.0,
        0.0,
        2.220446049250313e-16,
        -1.0,
        0.0,
        0.0,
        1.0,
        2.220446049250313e-16,
        0.0,
        0.0,
        25.175832748413086,
        -4.76837158203125e-07,
        1.0
      ],
      "name": "fuel_can"
    },
    {
      "mesh": 0,
      "name": "fuel_can_fuel_can_0"
    }
  ],
  "samplers": [
    {
      "magFilter": 9729,
      "minFilter": 9987,
      "wrapS": 10497,
      "wrapT": 10497
    }
  ],
  "scene": 0,
  "scenes": [
    {
      "name": "Sketchfab_Scene",
      "nodes": [
        0
      ]
    }
  ],
  "textures": [
    {
      "sampler": 0,
      "source": 0
    },
    {
      "sampler": 0,
      "source": 1
    },
    {
      "sampler": 0,
      "source": 2
    }
  ]
}
