{
  "accessors": [
    {
      "bufferView": 2,
      "componentType": 5126,
      "count": 488,
      "max": [
        159.46731567382813,
        519.6444702148438,
        191.36077880859375
      ],
      "min": [
        -159.46731567382813,
        -394.0254211425781,
        -191.36077880859375
      ],
      "type": "VEC3"
    },
    {
      "bufferView": 2,
      "byteOffset": 5856,
      "componentType": 5126,
      "count": 488,
      "max": [
        1.0,
        0.8884152770042419,
        1.0
      ],
      "min": [
        -1.0,
        -1.0,
        -1.0
      ],
      "type": "VEC3"
    },
    {
      "bufferView": 1,
      "componentType": 5126,
      "count": 488,
      "max": [
        0.8871986269950867,
        0.683614194393158
      ],
      "min": [
        0.5448026061058044,
        0.07317685335874557
      ],
      "type": "VEC2"
    },
    {
      "bufferView": 0,
      "componentType": 5125,
      "count": 738,
      "type": "SCALAR"
    },
    {
      "bufferView": 2,
      "byteOffset": 11712,
      "componentType": 5126,
      "count": 136,
      "max": [
        69.0682144165039,
        825.5274047851563,
        82.88186645507813
      ],
      "min": [
        -69.0682373046875,
        519.6444702148438,
        -82.88186645507813
      ],
      "type": "VEC3"
    },
    {
      "bufferView": 2,
      "byteOffset": 13344,
      "componentType": 5126,
      "count": 136,
      "max": [
        1.0,
        1.0,
        1.0
      ],
      "min": [
        -1.0,
        -0.6283039450645447,
        -1.0
      ],
      "type": "VEC3"
    },
    {
      "bufferView": 1,
      "byteOffset": 3904,
      "componentType": 5126,
      "count": 136,
      "max": [
        0.6441789865493774,
        0.9070125222206116
      ],
      "min": [
        0.10145571827888489,
        0.402551531791687
      ],
      "type": "VEC2"
    },
    {
      "bufferView": 0,
      "byteOffset": 2952,
      "componentType": 5125,
      "count": 210,
      "type": "SCALAR"
    },
    {
      "bufferView": 2,
      "byteOffset": 14976,
      "componentType": 5126,
      "count": 32,
      "max": [
        150.0,
        226.76925659179688,
        180.0
      ],
      "min": [
        -150.0,
        -216.63253784179688,
        -180.0
      ],
      "type": "VEC3"
    },
    {
      "bufferView": 2,
      "byteOffset": 15360,
      "componentType": 5126,
      "count": 32,
      "max": [
        1.0,
        0.0,
        1.0
      ],
      "min": [
        -1.0,
        0.0,
        -1.0
      ],
      "type": "VEC3"
    },
    {
      "bufferView": 1,
      "byteOffset": 4992,
      "componentType": 5126,
      "count": 32,
      "max": [
        0.9709662199020386,
        0.9591888189315796
      ],
      "min": [
        0.03866809234023094,
        0.05436503887176514
      ],
      "type": "VEC2"
    },
    {
      "bufferView": 0,
      "byteOffset": 3792,
      "componentType": 5125,
      "count": 48,
      "type": "SCALAR"
    },
    {
      "bufferView": 2,
      "byteOffset": 15744,
      "componentType": 5126,
      "count": 488,
      "max": [
        159.46731567382813,
        519.6444702148438,
        191.36077880859375
      ],
      "min": [
        -159.46731567382813,
        -394.0254211425781,
        -191.36077880859375
      ],
      "type": "VEC3"
    },
    {
      "bufferView": 2,
      "byteOffset": 21600,
      "componentType": 5126,
      "count": 488,
      "max": [
        1.0,
        0.8884152770042419,
        1.0
      ],
      "min": [
        -1.0,
        -1.0,
        -1.0
      ],
      "type": "VEC3"
    },
    {
      "bufferView": 1,
      "byteOffset": 5248,
      "componentType": 5126,
      "count": 488,
      "max": [
        0.8871986269950867,
        0.683614194393158
      ],
      "min": [
        0.5448026061058044,
        0.07317685335874557
      ],
      "type": "VEC2"
    },
    {
      "bufferView": 0,
      "byteOffset": 3984,
      "componentType": 5125,
      "count": 738,
      "type": "SCALAR"
    },
    {
      "bufferView": 2,
      "byteOffset": 27456,
      "componentType": 5126,
      "count": 136,
      "max": [
        69.0682144165039,
        825.5274047851563,
        82.88186645507813
      ],
      "min": [
        -69.0682373046875,
        519.6444702148438,
        -82.88186645507813
      ],
      "type": "VEC3"
    },
    {
      "bufferView": 2,
      "byteOffset": 29088,
      "componentType": 5126,
      "count": 136,
      "max": [
        1.0,
        1.0,
        1.0
      ],
      "min": [
        -1.0,
        -0.6283039450645447,
        -1.0
      ],
      "type": "VEC3"
    },
    {
      "bufferView": 1,
      "byteOffset": 9152,
      "componentType": 5126,
      "count": 136,
      "max": [
        0.6441789865493774,
        0.9070125222206116
      ],
      "min": [
        0.10145571827888489,
        0.402551531791687
      ],
      "type": "VEC2"
    },
    {
      "bufferView": 0,
      "byteOffset": 6936,
      "componentType": 5125,
      "count": 210,
      "type": "SCALAR"
    },
    {
      "bufferView": 2,
      "byteOffset": 30720,
      "componentType": 5126,
      "count": 32,
      "max": [
        150.0,
        226.76925659179688,
        180.0
      ],
      "min": [
        -150.0,
        -216.63253784179688,
        -180.0
      ],
      "type": "VEC3"
    },
    {
      "bufferView": 2,
      "byteOffset": 31104,
      "componentType": 5126,
      "count": 32,
      "max": [
        1.0,
        0.0,
        1.0
      ],
      "min": [
        -1.0,
        0.0,
        -1.0
      ],
      "type": "VEC3"
    },
    {
      "bufferView": 1,
      "byteOffset": 10240,
      "componentType": 5126,
      "count": 32,
      "max": [
        0.9709662199020386,
        0.9591888189315796
      ],
      "min": [
        0.03866809234023094,
        0.05436503887176514
      ],
      "type": "VEC2"
    },
    {
      "bufferView": 0,
      "byteOffset": 7776,
      "componentType": 5125,
      "count": 48,
      "type": "SCALAR"
    }
  ],
  "asset": {
    "extras": {
      "author": "My Name Is This (https://sketchfab.com/computer14072006)",
      "license": "CC-BY-4.0 (http://creativecommons.org/licenses/by/4.0/)",
      "source": "https://sketchfab.com/3d-models/low-poly-whiskey-bottle-2-label-variants-74b0eb2b219a465b9410498afdd239bb",
      "title": "Low Poly Whiskey Bottle – 2 Label Variants"
    },
    "generator": "Sketchfab-16.82.0",
    "version": "2.0"
  },
  "bufferViews": [
    {
      "buffer": 0,
      "byteLength": 7968,
      "name": "floatBufferViews",
      "target": 34963
    },
    {
      "buffer": 0,
      "byteLength": 10496,
      "byteOffset": 7968,
      "byteStride": 8,
      "name": "floatBufferViews",
      "target": 34962
    },
    {
      "buffer": 0,
      "byteLength": 31488,
      "byteOffset": 18464,
      "byteStride": 12,
      "name": "floatBufferViews",
      "target": 34962
    }
  ],
  "buffers": [
    {
      "byteLength": 49952,
      "uri": "scene.bin"
    }
  ],
  "extensionsUsed": [
    "KHR_materials_specular"
  ],
  "images": [
    {
      "uri": "textures/Material.001_baseColor.jpeg"
    },
    {
      "uri": "textures/Material.002_baseColor.jpeg"
    },
    {
      "uri": "textures/Material.005_baseColor.jpeg"
    }
  ],
  "materials": [
    {
      "doubleSided": true,
      "name": "Material.001",
      "pbrMetallicRoughness": {
        "baseColorTexture": {
          "index": 0
        },
        "roughnessFactor": 0.19999999999999996
      }
    },
    {
      "doubleSided": true,
      "extensions": {
        "KHR_materials_specular": {
          "specularColorFactor": [
            1.0,
            1.0,
            1.0
          ],
          "specularFactor": 1.0
        }
      },
      "name": "Material.003",
      "pbrMetallicRoughness": {
        "baseColorTexture": {
          "index": 0
        },
        "metallicFactor": 0.0
      }
    },
    {
      "doubleSided": true,
      "extensions": {
        "KHR_materials_specular": {
          "specularColorFactor": [
            1.0,
            1.0,
            1.0
          ],
          "specularFactor": 1.0
        }
      },
      "name": "Material.002",
      "pbrMetallicRoughness": {
        "baseColorTexture": {
          "index": 1
        },
        "metallicFactor": 0.0
      }
    },
    {
      "doubleSided": true,
      "name": "Material.004",
      "pbrMetallicRoughness": {
        "baseColorTexture": {
          "index": 0
        },
        "roughnessFactor": 0.19999999999999996
      }
    },
    {
      "doubleSided": true,
      "extensions": {
        "KHR_materials_specular": {
          "specularColorFactor": [
            1.0,
            1.0,
            1.0
          ],
          "specularFactor": 1.0
        }
      },
      "name": "Material.006",
      "pbrMetallicRoughness": {
        "baseColorTexture": {
          "index": 0
        },
        "metallicFactor": 0.0
      }
    },
    {
      "doubleSided": true,
      "extensions": {
        "KHR_materials_specular": {
          "specularColorFactor": [
            1.0,
            1.0,
            1.0
          ],
          "specularFactor": 1.0
        }
      },
      "name": "Material.005",
      "pbrMetallicRoughness": {
        "baseColorTexture": {
          "index": 2
        },
        "metallicFactor": 0.0
      }
    }
  ],
  "meshes": [
    {
      "name": "Cube_Material.001_0",
      "primitives": [
        {
          "attributes": {
            "NORMAL": 1,
            "POSITION": 0,
            "TEXCOORD_0": 2
          },
          "indices": 3,
          "material": 0,
          "mode": 4
        }
      ]
    },
    {
      "name": "Cube_Material.003_0",
      "primitives": [
        {
          "attributes": {
            "NORMAL": 5,
            "POSITION": 4,
            "TEXCOORD_0": 6
          },
          "indices": 7,
          "material": 1,
          "mode": 4
        }
      ]
    },
    {
      "name": "Cube_Material.002_0",
      "primitives": [
        {
          "attributes": {
            "NORMAL": 9,
            "POSITION": 8,
            "TEXCOORD_0": 10
          },
          "indices": 11,
          "material": 2,
          "mode": 4
        }
      ]
    },
    {
      "name": "Cube.001_Material.004_0",
      "primitives": [
        {
          "attributes": {
            "NORMAL": 13,
            "POSITION": 12,
            "TEXCOORD_0": 14
          },
          "indices": 15,
          "material": 3,
          "mode": 4
        }
      ]
    },
    {
      "name": "Cube.001_Material.006_0",
      "primitives": [
        {
          "attributes": {
            "NORMAL": 17,
            "POSITION": 16,
            "TEXCOORD_0": 18
          },
          "indices": 19,
          "material": 4,
          "mode": 4
        }
      ]
    },
    {
      "name": "Cube.001_Material.005_0",
      "primitives": [
        {
          "attributes": {
            "NORMAL": 21,
            "POSITION": 20,
            "TEXCOORD_0": 22
          },
          "indices": 23,
          "material": 5,
          "mode": 4
        }
      ]
    }
  ],
  "nodes": [
    {
      "children": [
        1
      ],
      "matrix": [
        1.0,
        0.0,
        0.0,
        0.0,
        0.0,
        2.220446049250313e-16,
        -1.0,
        0.0,
        0.0,
        1.0,
        2.220446049250313e-16,
        0.0,
        0.0,
        0.0,
        0.0,
        1.0
      ],
      "name": "Sketchfab_model"
    },
    {
      "children": [
        2
      ],
      "matrix": [
        0.009999999776482582,
        0.0,
        0.0,
        0.0,
        0.0,
        0.0,
        0.009999999776482582,
        0.0,
        0.0,
        -0.009999999776482582,
        0.0,
        0.0,
        0.0,
        0.0,
        0.0,
        1.0
      ],
      "name": "Wiskey.fbx"
    },
    {
      "children": [
        3,
        7
      ],
      "name": "RootNode"
    },
    {
      "children": [
        4,
        5,
        6
      ],
      "matrix": [
        1.0,
        0.0,
        0.0,
        0.0,
        0.0,
        1.0,
        0.0,
        0.0,
        0.0,
        0.0,
        1.0,
        0.0,
        0.0,
        0.0,
        -300.0,
        1.0
      ],
      "name": "Cube"
    },
    {
      "mesh": 0,
      "name": "Cube_Material.001_0"
    },
    {
      "mesh": 1,
      "name": "Cube_Material.003_0"
    },
    {
      "mesh": 2,
      "name": "Cube_Material.002_0"
    },
    {
      "children": [
        8,
        9,
        10
      ],
      "matrix": [
        1.0,
        0.0,
        0.0,
        0.0,
        0.0,
        1.0,
        0.0,
        0.0,
        0.0,
        0.0,
        1.0,
        0.0,
        0.0,
        0.0,
        300.0,
        1.0
      ],
      "name": "Cube.001"
    },
    {
      "mesh": 3,
      "name": "Cube.001_Material.004_0"
    },
    {
      "mesh": 4,
      "name": "Cube.001_Material.006_0"
    },
    {
      "mesh": 5,
      "name": "Cube.001_Material.005_0"
    }
  ],
  "samplers": [
    {
      "magFilter": 9729,
      "minFilter": 9987,
      "wrapS": 10497,
      "wrapT": 10497
    }
  ],
  "scene": 0,
  "scenes": [
    {
      "name": "Sketchfab_Scene",
      "nodes": [
        0
      ]
    }
  ],
  "textures": [
    {
      "sampler": 0,
      "source": 0
    },
    {
      "sampler": 0,
      "source": 1
    },
    {
      "sampler": 0,
      "source": 2
    }
  ]
}
